<svg preserveAspectRatio="none" width="100%" height="100%" overflow="visible" style="display: block;" viewBox="0 0 32 32" fill="none" xmlns="http://www.w3.org/2000/svg">
<g id="Frame">
<path id="Vector" d="M21.3333 29.3333L20 24" stroke="var(--stroke-0, #2563EB)" stroke-width="2" stroke-linecap="round" stroke-linejoin="round"/>
<path id="Vector_2" d="M25.332 18.6546C25.6857 18.6546 26.0248 18.5142 26.2748 18.2641C26.5249 18.0141 26.6654 17.6749 26.6654 17.3213V16.0013C26.6654 15.2941 26.3844 14.6158 25.8843 14.1157C25.3842 13.6156 24.7059 13.3346 23.9987 13.3346H19.9987C19.6451 13.3346 19.3059 13.1942 19.0559 12.9441C18.8058 12.6941 18.6654 12.3549 18.6654 12.0013V5.33464C18.6654 4.62739 18.3844 3.94911 17.8843 3.44902C17.3842 2.94892 16.7059 2.66797 15.9987 2.66797C15.2915 2.66797 14.6132 2.94892 14.1131 3.44902C13.613 3.94911 13.332 4.62739 13.332 5.33464V12.0013C13.332 12.3549 13.1916 12.6941 12.9415 12.9441C12.6915 13.1942 12.3523 13.3346 11.9987 13.3346H7.9987C7.29145 13.3346 6.61318 13.6156 6.11308 14.1157C5.61298 14.6158 5.33203 15.2941 5.33203 16.0013V17.3213C5.33203 17.6749 5.47251 18.0141 5.72256 18.2641C5.9726 18.5142 6.31174 18.6546 6.66536 18.6546" stroke="var(--stroke-0, #2563EB)" stroke-width="2" stroke-linecap="round" stroke-linejoin="round"/>
<path id="Vector_3" d="M6.66736 18.668H25.334L27.9647 27.6906C28.0117 27.8867 28.0136 28.0908 27.9703 28.2877C27.927 28.4845 27.8396 28.669 27.7147 28.8273C27.5899 28.9855 27.4307 29.1134 27.2493 29.2013C27.0679 29.2891 26.8689 29.3347 26.6674 29.3346H5.33403C5.13245 29.3347 4.93348 29.2891 4.75206 29.2013C4.57065 29.1134 4.41152 28.9855 4.28665 28.8273C4.16178 28.669 4.07441 28.4845 4.03111 28.2877C3.98782 28.0908 3.98973 27.8867 4.0367 27.6906L6.66736 18.668Z" stroke="var(--stroke-0, #2563EB)" stroke-width="2" stroke-linecap="round" stroke-linejoin="round"/>
<path id="Vector_4" d="M10.668 29.3333L12.0013 24" stroke="var(--stroke-0, #2563EB)" stroke-width="2" stroke-linecap="round" stroke-linejoin="round"/>
</g>
</svg>
