<svg width="200" height="32" viewBox="0 0 200 32" fill="none" xmlns="http://www.w3.org/2000/svg">
  <!-- Telegram -->
  <circle cx="16" cy="16" r="16" fill="#E0ECFF"/>
  <path d="M22 11L19 21L14 18L11 20V17L19 10L13 15H9L7 14L22 11Z" fill="#2563EB"/>
  
  <!-- Facebook -->
  <circle cx="56" cy="16" r="16" fill="#E0ECFF"/>
  <path d="M60 10H58C56.8954 10 56 10.8954 56 12V14H54V17H56V24H59V17H61L62 14H59V12.5C59 11.9477 59.4477 11.5 60 11.5H62V8H60C57.7909 8 56 9.79086 56 12V14" fill="#2563EB"/>
  
  <!-- WhatsApp -->
  <circle cx="96" cy="16" r="16" fill="#E0ECFF"/>
  <path d="M96 8C91.58 8 88 11.58 88 16C88 17.38 88.38 18.68 89.03 19.81L88 24L92.31 22.99C93.41 23.58 94.66 23.92 96 23.92C100.42 23.92 104 20.34 104 15.92C104 11.5 100.42 8 96 8ZM96 22.4C94.82 22.4 93.69 22.08 92.73 21.5L92.53 21.38L90.14 22.03L90.8 19.72L90.66 19.5C90.02 18.5 89.68 17.33 89.68 16.08C89.68 12.5 92.5 9.68 96.08 9.68C99.66 9.68 102.48 12.5 102.48 16.08C102.4 19.58 99.58 22.4 96 22.4Z" fill="#2563EB"/>
  
  <!-- Instagram -->
  <circle cx="136" cy="16" r="16" fill="#E0ECFF"/>
  <rect x="130" y="10" width="12" height="12" rx="3" stroke="#2563EB" stroke-width="1.5" fill="none"/>
  <circle cx="136" cy="16" r="3" stroke="#2563EB" stroke-width="1.5" fill="none"/>
  <circle cx="140" cy="12" r="1" fill="#2563EB"/>
  
  <!-- Twitter/X -->
  <circle cx="176" cy="16" r="16" fill="#E0ECFF"/>
  <path d="M182 11L177 16L182 21H180L176 17L172 21H170L175 16L170 11H172L176 15L180 11H182Z" fill="#2563EB"/>
</svg>

