<svg width="20" height="20" viewBox="0 0 20 20" fill="none" xmlns="http://www.w3.org/2000/svg">
<path d="M9.99998 6.16667C12.3 6.16667 14.1666 8.03333 14.1666 10.3333C14.1666 10.9917 14.025 11.6167 13.7666 12.175L16.175 14.5833C17.5083 13.425 18.5833 11.975 19.1666 10.3333C17.725 6.81667 14.1666 4.33333 9.99998 4.33333C9.06665 4.33333 8.15831 4.48333 7.29998 4.75L9.05831 6.50833C9.61665 6.25 10.2416 6.10833 9.99998 6.10833V6.16667ZM1.66665 3.95833L3.79165 6.08333L4.18331 6.475C2.73331 7.65833 1.56665 9.16667 0.833313 10.5C2.27498 14.0167 5.83331 16.5 9.99998 16.5C11.0083 16.5 11.9833 16.3333 12.9 16.025L13.2583 16.3833L15.8666 19L16.8333 18.0333L2.63331 3.83333L1.66665 3.95833ZM6.66665 9.66667L7.86665 10.8667C7.83331 10.9917 7.82498 11.1333 7.82498 11.2833C7.82498 12.4833 8.79998 13.4583 9.99998 13.4583C10.15 13.4583 10.2916 13.45 10.4166 13.4167L11.6166 14.6167C11.1083 14.8667 10.5666 15 9.99998 15C7.69998 15 5.83331 13.1333 5.83331 10.8333C5.83331 10.2667 5.96665 9.725 6.21665 9.21667L6.66665 9.66667Z" fill="#9CA3AF"/>
</svg>

