<svg width="20" height="20" viewBox="0 0 20 20" fill="none" xmlns="http://www.w3.org/2000/svg">
<path d="M10 4.5C5.83333 4.5 2.275 6.98333 0.833333 10.5C2.275 14.0167 5.83333 16.5 10 16.5C14.1667 16.5 17.725 14.0167 19.1667 10.5C17.725 6.98333 14.1667 4.5 10 4.5ZM10 14.5C7.7 14.5 5.83333 12.6333 5.83333 10.3333C5.83333 8.03333 7.7 6.16667 10 6.16667C12.3 6.16667 14.1667 8.03333 14.1667 10.3333C14.1667 12.6333 12.3 14.5 10 14.5ZM10 7.83333C8.61667 7.83333 7.5 8.95 7.5 10.3333C7.5 11.7167 8.61667 12.8333 10 12.8333C11.3833 12.8333 12.5 11.7167 12.5 10.3333C12.5 8.95 11.3833 7.83333 10 7.83333Z" fill="#9CA3AF"/>
</svg>

