<svg width="56" height="56" viewBox="0 0 56 56" fill="none" xmlns="http://www.w3.org/2000/svg">
<rect width="56" height="56" rx="12" fill="#E0ECFF"/>
<path d="M33.3333 41.3333L32 36" stroke="#2563EB" stroke-width="2" stroke-linecap="round" stroke-linejoin="round"/>
<path d="M37.332 30.6546C37.6857 30.6546 38.0248 30.5142 38.2748 30.2641C38.5249 30.0141 38.6654 29.6749 38.6654 29.3213V28.0013C38.6654 27.2941 38.3844 26.6158 37.8843 26.1157C37.3842 25.6156 36.7059 25.3346 35.9987 25.3346H31.9987C31.6451 25.3346 31.3059 25.1942 31.0559 24.9441C30.8058 24.6941 30.6654 24.3549 30.6654 24.0013V17.3346C30.6654 16.6274 30.3844 15.9491 29.8843 15.449C29.3842 14.9489 28.7059 14.668 27.9987 14.668C27.2915 14.668 26.6132 14.9489 26.1131 15.449C25.613 15.9491 25.332 16.6274 25.332 17.3346V24.0013C25.332 24.3549 25.1916 24.6941 24.9415 24.9441C24.6915 25.1942 24.3523 25.3346 23.9987 25.3346H19.9987C19.2915 25.3346 18.6132 25.6156 18.1131 26.1157C17.613 26.6158 17.332 27.2941 17.332 28.0013V29.3213C17.332 29.6749 17.4725 30.0141 17.7226 30.2641C17.9726 30.5142 18.3117 30.6546 18.6654 30.6546" stroke="#2563EB" stroke-width="2" stroke-linecap="round" stroke-linejoin="round"/>
<path d="M18.6674 30.668H37.334L39.9647 39.6906C40.0117 39.8867 40.0136 40.0908 39.9703 40.2877C39.927 40.4845 39.8396 40.669 39.7147 40.8273C39.5899 40.9855 39.4307 41.1134 39.2493 41.2013C39.0679 41.2891 38.8689 41.3347 38.6674 41.3346H17.334C17.1325 41.3347 16.9335 41.2891 16.7521 41.2013C16.5706 41.1134 16.4115 40.9855 16.2866 40.8273C16.1618 40.669 16.0744 40.4845 16.0311 40.2877C15.9878 40.0908 15.9897 39.8867 16.0367 39.6906L18.6674 30.668Z" stroke="#2563EB" stroke-width="2" stroke-linecap="round" stroke-linejoin="round"/>
<path d="M22.668 41.3333L24.0013 36" stroke="#2563EB" stroke-width="2" stroke-linecap="round" stroke-linejoin="round"/>
</svg>
