<svg width="56" height="56" viewBox="0 0 56 56" fill="none" xmlns="http://www.w3.org/2000/svg">
<rect width="56" height="56" rx="12" fill="#E0ECFF"/>
<path d="M26.668 34.6654L29.3346 37.332C29.5973 37.5947 29.9091 37.803 30.2522 37.9452C30.5954 38.0873 30.9632 38.1605 31.3346 38.1605C31.7061 38.1605 32.0739 38.0873 32.417 37.9452C32.7602 37.803 33.072 37.5947 33.3346 37.332C33.5973 37.0694 33.8056 36.7576 33.9478 36.4144C34.0899 36.0713 34.1631 35.7035 34.1631 35.332C34.1631 34.9606 34.0899 34.5928 33.9478 34.2496C33.8056 33.9065 33.5973 33.5947 33.3346 33.332" stroke="#2563EB" stroke-width="2" stroke-linecap="round" stroke-linejoin="round"/>
<path d="M30.667 30.6673L34.0003 34.0007C34.5307 34.5311 35.2502 34.8291 36.0003 34.8291C36.7504 34.8291 37.4699 34.5311 38.0003 34.0007C38.5307 33.4702 38.8287 32.7508 38.8287 32.0007C38.8287 31.2505 38.5307 30.5311 38.0003 30.0007L32.827 24.8273C32.077 24.0783 31.0603 23.6575 30.0003 23.6575C28.9403 23.6575 27.9236 24.0783 27.1736 24.8273L26.0003 26.0007C25.4699 26.5311 24.7504 26.8291 24.0003 26.8291C23.2502 26.8291 22.5307 26.5311 22.0003 26.0007C21.4699 25.4702 21.1719 24.7508 21.1719 24.0007C21.1719 23.2505 21.4699 22.5311 22.0003 22.0007L25.747 18.254C26.9633 17.0409 28.5495 16.2681 30.2545 16.058C31.9595 15.8479 33.6859 16.2124 35.1603 17.094L35.787 17.4673C36.3547 17.81 37.0297 17.9288 37.6803 17.8007L40.0003 17.334" stroke="#2563EB" stroke-width="2" stroke-linecap="round" stroke-linejoin="round"/>
<path d="M40.0013 16L41.3346 30.6667H38.668" stroke="#2563EB" stroke-width="2" stroke-linecap="round" stroke-linejoin="round"/>
<path d="M16.0013 16L14.668 30.6667L23.3346 39.3333C23.8651 39.8638 24.5845 40.1618 25.3346 40.1618C26.0848 40.1618 26.8042 39.8638 27.3346 39.3333C27.8651 38.8029 28.1631 38.0835 28.1631 37.3333C28.1631 36.5832 27.8651 35.8638 27.3346 35.3333" stroke="#2563EB" stroke-width="2" stroke-linecap="round" stroke-linejoin="round"/>
<path d="M16 17.332H26.6667" stroke="#2563EB" stroke-width="2" stroke-linecap="round" stroke-linejoin="round"/>
</svg>
