<svg width="56" height="56" viewBox="0 0 56 56" fill="none" xmlns="http://www.w3.org/2000/svg">
<rect width="56" height="56" rx="12" fill="#E0ECFF"/>
<path d="M33.332 22.668C35.4538 22.668 37.4886 23.5108 38.9889 25.0111C40.4892 26.5114 41.332 28.5462 41.332 30.668V40.0013H35.9987V30.668C35.9987 29.9607 35.7177 29.2824 35.2176 28.7824C34.7176 28.2823 34.0393 28.0013 33.332 28.0013C32.6248 28.0013 31.9465 28.2823 31.4464 28.7824C30.9463 29.2824 30.6654 29.9607 30.6654 30.668V40.0013H25.332V30.668C25.332 28.5462 26.1749 26.5114 27.6752 25.0111C29.1755 23.5108 31.2103 22.668 33.332 22.668Z" stroke="#2563EB" stroke-width="2" stroke-linecap="round" stroke-linejoin="round"/>
<path d="M20.0013 24H14.668V40H20.0013V24Z" stroke="#2563EB" stroke-width="2" stroke-linecap="round" stroke-linejoin="round"/>
<path d="M17.3346 20.0013C18.8074 20.0013 20.0013 18.8074 20.0013 17.3346C20.0013 15.8619 18.8074 14.668 17.3346 14.668C15.8619 14.668 14.668 15.8619 14.668 17.3346C14.668 18.8074 15.8619 20.0013 17.3346 20.0013Z" stroke="#2563EB" stroke-width="2" stroke-linecap="round" stroke-linejoin="round"/>
</svg>
