<svg width="56" height="56" viewBox="0 0 56 56" fill="none" xmlns="http://www.w3.org/2000/svg">
<rect width="56" height="56" rx="12" fill="#E0ECFF"/>
<path d="M34.668 14.668H21.3346C17.6527 14.668 14.668 17.6527 14.668 21.3346V34.668C14.668 38.3499 17.6527 41.3346 21.3346 41.3346H34.668C38.3499 41.3346 41.3346 38.3499 41.3346 34.668V21.3346C41.3346 17.6527 38.3499 14.668 34.668 14.668Z" stroke="#2563EB" stroke-width="2" stroke-linecap="round" stroke-linejoin="round"/>
<path d="M33.3316 27.1604C33.4962 28.2701 33.3067 29.4034 32.79 30.3991C32.2733 31.3948 31.4558 32.2023 30.4538 32.7066C29.4518 33.211 28.3162 33.3865 27.2087 33.2083C26.1011 33.0301 25.078 32.5072 24.2848 31.714C23.4915 30.9207 22.9686 29.8976 22.7904 28.79C22.6122 27.6825 22.7877 26.5469 23.2921 25.5449C23.7964 24.5429 24.6039 23.7254 25.5996 23.2087C26.5954 22.6921 27.7286 22.5025 28.8383 22.6671C29.9702 22.8349 31.0181 23.3624 31.8272 24.1715C32.6364 24.9806 33.1638 26.0285 33.3316 27.1604Z" stroke="#2563EB" stroke-width="2" stroke-linecap="round" stroke-linejoin="round"/>
<path d="M35.332 20.668H35.3454" stroke="#2563EB" stroke-width="2" stroke-linecap="round" stroke-linejoin="round"/>
</svg>
