<svg width="32" height="32" viewBox="0 0 32 32" fill="none" xmlns="http://www.w3.org/2000/svg">
<path d="M26.5 4H5.5C4.7 4 4 4.7 4 5.5V26.5C4 27.3 4.7 28 5.5 28H26.5C27.3 28 28 27.3 28 26.5V5.5C28 4.7 27.3 4 26.5 4ZM11.3 24.5H8.1V13.3H11.3V24.5ZM9.7 11.9C8.7 11.9 7.9 11.1 7.9 10.1C7.9 9.1 8.7 8.3 9.7 8.3C10.7 8.3 11.5 9.1 11.5 10.1C11.5 11.1 10.7 11.9 9.7 11.9ZM24.5 24.5H21.3V19.1C21.3 17.9 21.3 16.3 19.6 16.3C17.9 16.3 17.6 17.6 17.6 19V24.5H14.4V13.3H17.5V14.8H17.5C18 13.9 19.1 13 20.7 13C23.9 13 24.5 15.1 24.5 17.8V24.5Z" fill="#2563EB"/>
</svg>

