<svg width="20" height="20" viewBox="0 0 20 20" fill="none" xmlns="http://www.w3.org/2000/svg">
<path d="M15 6.66797C15 9.6788 11.7758 12.8588 10.5058 13.9971C10.3606 14.1081 10.1828 14.1682 10 14.1682C9.81719 14.1682 9.63945 14.1081 9.49417 13.9971C8.225 12.8588 5 9.6788 5 6.66797C5 5.34189 5.52678 4.07012 6.46447 3.13243C7.40215 2.19475 8.67392 1.66797 10 1.66797C11.3261 1.66797 12.5979 2.19475 13.5355 3.13243C14.4732 4.07012 15 5.34189 15 6.66797Z" stroke="white" stroke-linecap="round" stroke-linejoin="round"/>
<path d="M9.9987 8.33333C10.9192 8.33333 11.6654 7.58714 11.6654 6.66667C11.6654 5.74619 10.9192 5 9.9987 5C9.07822 5 8.33203 5.74619 8.33203 6.66667C8.33203 7.58714 9.07822 8.33333 9.9987 8.33333Z" stroke="white" stroke-linecap="round" stroke-linejoin="round"/>
<path d="M7.26261 11.668H4.17095C3.99622 11.668 3.82594 11.723 3.68417 11.8252C3.54241 11.9273 3.43634 12.0714 3.38095 12.2371L1.71095 17.2371C1.66908 17.3624 1.65759 17.4958 1.67741 17.6264C1.69723 17.757 1.74781 17.881 1.82497 17.9881C1.90212 18.0953 2.00365 18.1826 2.12118 18.2429C2.23871 18.3031 2.36888 18.3346 2.50095 18.3346H17.5009C17.6329 18.3345 17.763 18.3031 17.8804 18.2429C17.9979 18.1827 18.0993 18.0955 18.1765 17.9884C18.2536 17.8813 18.3042 17.7574 18.3241 17.627C18.344 17.4965 18.3327 17.3632 18.2909 17.238L16.6243 12.238C16.569 12.072 16.4629 11.9276 16.3209 11.8253C16.179 11.723 16.0084 11.6679 15.8334 11.668H12.7401" stroke="white" stroke-linecap="round" stroke-linejoin="round"/>
</svg>
