<svg width="32" height="32" viewBox="0 0 32 32" fill="none" xmlns="http://www.w3.org/2000/svg">
<path d="M24.5 9.5C23.8 9.8 23.1 10 22.3 10.1C23.1 9.6 23.7 8.8 24 7.9C23.2 8.4 22.4 8.7 21.5 8.9C20.7 8.1 19.6 7.6 18.4 7.6C16.1 7.6 14.3 9.5 14.3 11.8C14.3 12.1 14.3 12.4 14.4 12.7C11 12.5 8 10.9 6 8.4C5.7 8.9 5.5 9.6 5.5 10.3C5.5 11.6 6.2 12.8 7.2 13.5C6.6 13.5 6 13.3 5.5 13C5.5 13 5.5 13 5.5 13.1C5.5 15.1 6.9 16.8 8.7 17.1C8.4 17.2 8.1 17.2 7.8 17.2C7.6 17.2 7.4 17.2 7.2 17.1C7.6 18.8 9.1 20 10.9 20C9.5 21.1 7.7 21.7 5.8 21.7C5.5 21.7 5.2 21.7 4.9 21.6C6.7 22.8 8.8 23.5 11.1 23.5C18.4 23.5 22.4 17.3 22.4 12.2C22.4 12.1 22.4 11.9 22.4 11.8C23.3 11.2 24 10.4 24.5 9.5Z" fill="#2563EB"/>
</svg>
