<svg width="56" height="56" viewBox="0 0 56 56" fill="none" xmlns="http://www.w3.org/2000/svg">
<rect width="56" height="56" rx="12" fill="#E0ECFF"/>
<path d="M15.3314 34.6667C14.4 30.271 14.4 25.729 15.3314 21.3333C15.4538 20.8869 15.6902 20.4801 16.0175 20.1528C16.3448 19.8255 16.7517 19.5891 17.1981 19.4667C24.3493 18.2819 31.6468 18.2819 38.7981 19.4667C39.2444 19.5891 39.6513 19.8255 39.9786 20.1528C40.3059 20.4801 40.5423 20.8869 40.6647 21.3333C41.5962 25.729 41.5962 30.271 40.6647 34.6667C40.5423 35.1131 40.3059 35.5199 39.9786 35.8472C39.6513 36.1745 39.2444 36.4109 38.7981 36.5333C31.6468 37.7183 24.3493 37.7183 17.1981 36.5333C16.7517 36.4109 16.3448 36.1745 16.0175 35.8472C15.6902 35.5199 15.4538 35.1131 15.3314 34.6667Z" stroke="#2563EB" stroke-width="2" stroke-linecap="round" stroke-linejoin="round"/>
<path d="M25.332 32L31.9987 28L25.332 24V32Z" stroke="#2563EB" stroke-width="2" stroke-linecap="round" stroke-linejoin="round"/>
</svg>
