<svg width="32" height="32" viewBox="0 0 32 32" fill="none" xmlns="http://www.w3.org/2000/svg">
<path d="M26.8 10.1C26.5 8.9 25.6 8 24.4 7.7C22.3 7.2 16 7.2 16 7.2C16 7.2 9.7 7.2 7.6 7.7C6.4 8 5.5 8.9 5.2 10.1C4.7 12.2 4.7 16.5 4.7 16.5C4.7 16.5 4.7 20.8 5.2 22.9C5.5 24.1 6.4 25 7.6 25.3C9.7 25.8 16 25.8 16 25.8C16 25.8 22.3 25.8 24.4 25.3C25.6 25 26.5 24.1 26.8 22.9C27.3 20.8 27.3 16.5 27.3 16.5C27.3 16.5 27.3 12.2 26.8 10.1Z" fill="#2563EB"/>
<path d="M13.5 20V13L19.5 16.5L13.5 20Z" fill="white"/>
</svg>
